%TF.GenerationSoftware,KiCad,Pcbnew,8.0.6*%
%TF.CreationDate,2024-10-24T11:44:03+02:00*%
%TF.ProjectId,IoT_Kicad_MP,496f545f-4b69-4636-9164-5f4d502e6b69,rev?*%
%TF.SameCoordinates,Original*%
%TF.FileFunction,Paste,Top*%
%TF.FilePolarity,Positive*%
%FSLAX46Y46*%
G04 Gerber Fmt 4.6, Leading zero omitted, Abs format (unit mm)*
G04 Created by KiCad (PCBNEW 8.0.6) date 2024-10-24 11:44:03*
%MOMM*%
%LPD*%
G01*
G04 APERTURE LIST*
G04 Aperture macros list*
%AMRoundRect*
0 Rectangle with rounded corners*
0 $1 Rounding radius*
0 $2 $3 $4 $5 $6 $7 $8 $9 X,Y pos of 4 corners*
0 Add a 4 corners polygon primitive as box body*
4,1,4,$2,$3,$4,$5,$6,$7,$8,$9,$2,$3,0*
0 Add four circle primitives for the rounded corners*
1,1,$1+$1,$2,$3*
1,1,$1+$1,$4,$5*
1,1,$1+$1,$6,$7*
1,1,$1+$1,$8,$9*
0 Add four rect primitives between the rounded corners*
20,1,$1+$1,$2,$3,$4,$5,0*
20,1,$1+$1,$4,$5,$6,$7,0*
20,1,$1+$1,$6,$7,$8,$9,0*
20,1,$1+$1,$8,$9,$2,$3,0*%
G04 Aperture macros list end*
%ADD10R,0.300000X0.800000*%
%ADD11R,1.550000X1.750000*%
%ADD12R,0.600000X0.350000*%
%ADD13R,1.100000X1.700000*%
%ADD14R,0.165000X0.165000*%
%ADD15RoundRect,0.250000X-0.450000X0.262500X-0.450000X-0.262500X0.450000X-0.262500X0.450000X0.262500X0*%
%ADD16R,1.000000X2.000000*%
%ADD17R,0.520000X1.000000*%
%ADD18R,0.270000X1.000000*%
%ADD19R,0.700000X0.700000*%
%ADD20R,1.500000X0.900000*%
%ADD21RoundRect,0.250000X0.262500X0.450000X-0.262500X0.450000X-0.262500X-0.450000X0.262500X-0.450000X0*%
%ADD22RoundRect,0.243750X-0.456250X0.243750X-0.456250X-0.243750X0.456250X-0.243750X0.456250X0.243750X0*%
%ADD23RoundRect,0.243750X0.456250X-0.243750X0.456250X0.243750X-0.456250X0.243750X-0.456250X-0.243750X0*%
%ADD24RoundRect,0.250000X-0.475000X0.250000X-0.475000X-0.250000X0.475000X-0.250000X0.475000X0.250000X0*%
%ADD25RoundRect,0.250000X0.475000X-0.250000X0.475000X0.250000X-0.475000X0.250000X-0.475000X-0.250000X0*%
G04 APERTURE END LIST*
D10*
%TO.C,IC3*%
X107750000Y-63500000D03*
X107250000Y-63500000D03*
X106750000Y-63500000D03*
X106250000Y-63500000D03*
X106250000Y-66500000D03*
X106750000Y-66500000D03*
X107250000Y-66500000D03*
X107750000Y-66500000D03*
D11*
X107000000Y-65000000D03*
%TD*%
D12*
%TO.C,IC2*%
X127224000Y-78386500D03*
X127224000Y-77736500D03*
X127224000Y-77086500D03*
X125124000Y-77086500D03*
X125124000Y-77736500D03*
X125124000Y-78386500D03*
D13*
X126174000Y-77736500D03*
%TD*%
D14*
%TO.C,IC1*%
X105000000Y-56500000D03*
X105350000Y-56500000D03*
X105000000Y-56850000D03*
X105350000Y-56850000D03*
%TD*%
D15*
%TO.C,R6*%
X132000000Y-62375000D03*
X132000000Y-64200000D03*
%TD*%
D16*
%TO.C,J2*%
X119000000Y-53500000D03*
X116200000Y-53500000D03*
D17*
X120700000Y-57700000D03*
X119950000Y-57700000D03*
D18*
X119350000Y-57700000D03*
X117850000Y-57700000D03*
X116850000Y-57700000D03*
X115850000Y-57700000D03*
D17*
X115250000Y-57700000D03*
X114500000Y-57700000D03*
X114500000Y-57700000D03*
X115250000Y-57700000D03*
D18*
X116350000Y-57700000D03*
X117350000Y-57700000D03*
X118350000Y-57700000D03*
X118850000Y-57700000D03*
D17*
X119950000Y-57700000D03*
X120700000Y-57700000D03*
%TD*%
D19*
%TO.C,U1*%
X125900000Y-93800000D03*
X125900000Y-92700000D03*
X125900000Y-91600000D03*
X124800000Y-93800000D03*
X124800000Y-92700000D03*
X124800000Y-91600000D03*
X123700000Y-93800000D03*
X123700000Y-92700000D03*
X123700000Y-91600000D03*
D20*
X134510000Y-98900000D03*
X134510000Y-97400000D03*
X134510000Y-95900000D03*
X134510000Y-94400000D03*
X134510000Y-92900000D03*
X134510000Y-91400000D03*
X134510000Y-89900000D03*
X134510000Y-88400000D03*
X134510000Y-86900000D03*
X117010000Y-86900000D03*
X117010000Y-88400000D03*
X117010000Y-89900000D03*
X117010000Y-91400000D03*
X117010000Y-92900000D03*
X117010000Y-94400000D03*
X117010000Y-95900000D03*
X117010000Y-97400000D03*
X117010000Y-98900000D03*
%TD*%
D15*
%TO.C,R5*%
X130000000Y-81087500D03*
X130000000Y-82912500D03*
%TD*%
D21*
%TO.C,R4*%
X108700000Y-72800000D03*
X106875000Y-72800000D03*
%TD*%
D15*
%TO.C,R3*%
X124000000Y-81087500D03*
X124000000Y-82912500D03*
%TD*%
%TO.C,R2*%
X127000000Y-81087500D03*
X127000000Y-82912500D03*
%TD*%
D21*
%TO.C,R1*%
X109100000Y-68600000D03*
X107275000Y-68600000D03*
%TD*%
D22*
%TO.C,D3*%
X104200000Y-70000000D03*
X104200000Y-71875000D03*
%TD*%
D23*
%TO.C,D2*%
X132000000Y-65962500D03*
X132000000Y-67837500D03*
%TD*%
%TO.C,D1*%
X112000000Y-71537500D03*
X112000000Y-69662500D03*
%TD*%
D24*
%TO.C,C6*%
X103000000Y-63000000D03*
X103000000Y-64900000D03*
%TD*%
D25*
%TO.C,C5*%
X110000000Y-62450000D03*
X110000000Y-60550000D03*
%TD*%
%TO.C,C4*%
X138865421Y-98585333D03*
X138865421Y-96685333D03*
%TD*%
%TO.C,C3*%
X136800000Y-98600000D03*
X136800000Y-96700000D03*
%TD*%
D24*
%TO.C,C2*%
X108500000Y-56050000D03*
X108500000Y-57950000D03*
%TD*%
%TO.C,C1*%
X102000000Y-56000000D03*
X102000000Y-57900000D03*
%TD*%
M02*
