%TF.GenerationSoftware,KiCad,Pcbnew,8.0.6*%
%TF.CreationDate,2024-10-24T11:44:03+02:00*%
%TF.ProjectId,IoT_Kicad_MP,496f545f-4b69-4636-9164-5f4d502e6b69,rev?*%
%TF.SameCoordinates,Original*%
%TF.FileFunction,Copper,L2,Bot*%
%TF.FilePolarity,Positive*%
%FSLAX46Y46*%
G04 Gerber Fmt 4.6, Leading zero omitted, Abs format (unit mm)*
G04 Created by KiCad (PCBNEW 8.0.6) date 2024-10-24 11:44:03*
%MOMM*%
%LPD*%
G01*
G04 APERTURE LIST*
G04 Aperture macros list*
%AMRoundRect*
0 Rectangle with rounded corners*
0 $1 Rounding radius*
0 $2 $3 $4 $5 $6 $7 $8 $9 X,Y pos of 4 corners*
0 Add a 4 corners polygon primitive as box body*
4,1,4,$2,$3,$4,$5,$6,$7,$8,$9,$2,$3,0*
0 Add four circle primitives for the rounded corners*
1,1,$1+$1,$2,$3*
1,1,$1+$1,$4,$5*
1,1,$1+$1,$6,$7*
1,1,$1+$1,$8,$9*
0 Add four rect primitives between the rounded corners*
20,1,$1+$1,$2,$3,$4,$5,0*
20,1,$1+$1,$4,$5,$6,$7,0*
20,1,$1+$1,$6,$7,$8,$9,0*
20,1,$1+$1,$8,$9,$2,$3,0*%
G04 Aperture macros list end*
%TA.AperFunction,ComponentPad*%
%ADD10R,1.300000X1.300000*%
%TD*%
%TA.AperFunction,ComponentPad*%
%ADD11C,1.300000*%
%TD*%
%TA.AperFunction,ComponentPad*%
%ADD12O,1.300000X2.300000*%
%TD*%
%TA.AperFunction,ComponentPad*%
%ADD13O,1.300000X2.600000*%
%TD*%
%TA.AperFunction,HeatsinkPad*%
%ADD14C,0.600000*%
%TD*%
%TA.AperFunction,ComponentPad*%
%ADD15RoundRect,0.250000X0.550000X0.550000X-0.550000X0.550000X-0.550000X-0.550000X0.550000X-0.550000X0*%
%TD*%
%TA.AperFunction,ComponentPad*%
%ADD16C,1.600000*%
%TD*%
%TA.AperFunction,ViaPad*%
%ADD17C,0.600000*%
%TD*%
%TA.AperFunction,Conductor*%
%ADD18C,0.200000*%
%TD*%
G04 APERTURE END LIST*
D10*
%TO.P,S1,1,COM*%
%TO.N,Net-(S1-COM)*%
X132000000Y-58725000D03*
D11*
%TO.P,S1,2,NO*%
%TO.N,+3.3V*%
X129460000Y-58725000D03*
%TO.P,S1,3,NC*%
%TO.N,unconnected-(S1-NC-Pad3)*%
X134540000Y-58725000D03*
%TD*%
D12*
%TO.P,J2,S1,SHIELD*%
%TO.N,GND*%
X121920000Y-57325000D03*
D13*
X121920000Y-53500000D03*
D12*
X113280000Y-57325000D03*
D13*
X113280000Y-53500000D03*
%TD*%
D14*
%TO.P,U1,19,GND*%
%TO.N,GND*%
X125900000Y-93250000D03*
X125900000Y-92150000D03*
X125350000Y-93800000D03*
X125350000Y-92700000D03*
X125350000Y-91600000D03*
X124800000Y-93250000D03*
X124800000Y-92150000D03*
X124250000Y-93800000D03*
X124250000Y-92700000D03*
X124250000Y-91600000D03*
X123700000Y-93250000D03*
X123700000Y-92150000D03*
%TD*%
D15*
%TO.P,J1,1,Pin_1*%
%TO.N,+BATT*%
X107100000Y-52500000D03*
D16*
%TO.P,J1,2,Pin_2*%
%TO.N,GND*%
X103500000Y-52500000D03*
%TD*%
D17*
%TO.N,USB_D+*%
X118500000Y-92000000D03*
X117800003Y-56500000D03*
%TO.N,USB_D-*%
X118500000Y-90500000D03*
X117000000Y-56500000D03*
%TO.N,GND*%
X141000000Y-96500000D03*
X129000000Y-68000000D03*
%TO.N,+3.3V*%
X124236500Y-77736500D03*
X128500000Y-80000000D03*
%TO.N,GND*%
X106500000Y-59500000D03*
X102000000Y-59400000D03*
%TD*%
D18*
%TO.N,USB_D+*%
X119100000Y-91400000D02*
X118500000Y-92000000D01*
X119100000Y-57799997D02*
X119100000Y-91400000D01*
X117800003Y-56500000D02*
X119100000Y-57799997D01*
%TO.N,USB_D-*%
X117000000Y-89000000D02*
X118500000Y-90500000D01*
X117000000Y-56500000D02*
X117000000Y-89000000D01*
%TO.N,+3.3V*%
X126236500Y-77736500D02*
X124236500Y-77736500D01*
X128500000Y-80000000D02*
X126236500Y-77736500D01*
%TD*%
%TA.AperFunction,Conductor*%
%TO.N,GND*%
G36*
X149442539Y-50520185D02*
G01*
X149488294Y-50572989D01*
X149499500Y-50624500D01*
X149499500Y-99375500D01*
X149479815Y-99442539D01*
X149427011Y-99488294D01*
X149375500Y-99499500D01*
X100624500Y-99499500D01*
X100557461Y-99479815D01*
X100511706Y-99427011D01*
X100500500Y-99375500D01*
X100500500Y-94516660D01*
X123886892Y-94516660D01*
X123886892Y-94516661D01*
X123900692Y-94525333D01*
X123900691Y-94525333D01*
X124070861Y-94584878D01*
X124249997Y-94605062D01*
X124250003Y-94605062D01*
X124429138Y-94584878D01*
X124429141Y-94584877D01*
X124599305Y-94525334D01*
X124599306Y-94525334D01*
X124613106Y-94516661D01*
X124613106Y-94516660D01*
X124986892Y-94516660D01*
X124986892Y-94516661D01*
X125000692Y-94525333D01*
X125000691Y-94525333D01*
X125170861Y-94584878D01*
X125349997Y-94605062D01*
X125350003Y-94605062D01*
X125529138Y-94584878D01*
X125529141Y-94584877D01*
X125699305Y-94525334D01*
X125699306Y-94525334D01*
X125713106Y-94516661D01*
X125713106Y-94516660D01*
X125350001Y-94153553D01*
X125350000Y-94153553D01*
X124986892Y-94516660D01*
X124613106Y-94516660D01*
X124250001Y-94153553D01*
X124250000Y-94153553D01*
X123886892Y-94516660D01*
X100500500Y-94516660D01*
X100500500Y-93966660D01*
X123336892Y-93966660D01*
X123336892Y-93966661D01*
X123350692Y-93975333D01*
X123350699Y-93975336D01*
X123423205Y-94000708D01*
X123479981Y-94041430D01*
X123499291Y-94076793D01*
X123524664Y-94149302D01*
X123533338Y-94163107D01*
X123896446Y-93800000D01*
X123876555Y-93780109D01*
X124150000Y-93780109D01*
X124150000Y-93819891D01*
X124165224Y-93856645D01*
X124193355Y-93884776D01*
X124230109Y-93900000D01*
X124269891Y-93900000D01*
X124306645Y-93884776D01*
X124334776Y-93856645D01*
X124350000Y-93819891D01*
X124350000Y-93799999D01*
X124603553Y-93799999D01*
X124800000Y-93996446D01*
X124996446Y-93800000D01*
X124976555Y-93780109D01*
X125250000Y-93780109D01*
X125250000Y-93819891D01*
X125265224Y-93856645D01*
X125293355Y-93884776D01*
X125330109Y-93900000D01*
X125369891Y-93900000D01*
X125406645Y-93884776D01*
X125434776Y-93856645D01*
X125450000Y-93819891D01*
X125450000Y-93800000D01*
X125703553Y-93800000D01*
X126066660Y-94163106D01*
X126066661Y-94163106D01*
X126075334Y-94149306D01*
X126075334Y-94149305D01*
X126100707Y-94076795D01*
X126141429Y-94020019D01*
X126176795Y-94000707D01*
X126249305Y-93975334D01*
X126249306Y-93975334D01*
X126263106Y-93966661D01*
X126263106Y-93966660D01*
X125900000Y-93603553D01*
X125834241Y-93669313D01*
X125834240Y-93669314D01*
X125703553Y-93800000D01*
X125450000Y-93800000D01*
X125450000Y-93780109D01*
X125434776Y-93743355D01*
X125406645Y-93715224D01*
X125369891Y-93700000D01*
X125330109Y-93700000D01*
X125293355Y-93715224D01*
X125265224Y-93743355D01*
X125250000Y-93780109D01*
X124976555Y-93780109D01*
X124865760Y-93669314D01*
X124800000Y-93603553D01*
X124734241Y-93669313D01*
X124734240Y-93669314D01*
X124603553Y-93799999D01*
X124350000Y-93799999D01*
X124350000Y-93780109D01*
X124334776Y-93743355D01*
X124306645Y-93715224D01*
X124269891Y-93700000D01*
X124230109Y-93700000D01*
X124193355Y-93715224D01*
X124165224Y-93743355D01*
X124150000Y-93780109D01*
X123876555Y-93780109D01*
X123699999Y-93603553D01*
X123699998Y-93603553D01*
X123336892Y-93966660D01*
X100500500Y-93966660D01*
X100500500Y-93249997D01*
X122894938Y-93249997D01*
X122894938Y-93250002D01*
X122915121Y-93429138D01*
X122974665Y-93599304D01*
X122983338Y-93613107D01*
X123346446Y-93250000D01*
X123346446Y-93249999D01*
X123326556Y-93230109D01*
X123600000Y-93230109D01*
X123600000Y-93269891D01*
X123615224Y-93306645D01*
X123643355Y-93334776D01*
X123680109Y-93350000D01*
X123719891Y-93350000D01*
X123756645Y-93334776D01*
X123784776Y-93306645D01*
X123800000Y-93269891D01*
X123800000Y-93250000D01*
X124053553Y-93250000D01*
X124099645Y-93296091D01*
X124250000Y-93446446D01*
X124446446Y-93250000D01*
X124426555Y-93230109D01*
X124700000Y-93230109D01*
X124700000Y-93269891D01*
X124715224Y-93306645D01*
X124743355Y-93334776D01*
X124780109Y-93350000D01*
X124819891Y-93350000D01*
X124856645Y-93334776D01*
X124884776Y-93306645D01*
X124900000Y-93269891D01*
X124900000Y-93250000D01*
X125153553Y-93250000D01*
X125199645Y-93296091D01*
X125350000Y-93446446D01*
X125546446Y-93250000D01*
X125526555Y-93230109D01*
X125800000Y-93230109D01*
X125800000Y-93269891D01*
X125815224Y-93306645D01*
X125843355Y-93334776D01*
X125880109Y-93350000D01*
X125919891Y-93350000D01*
X125956645Y-93334776D01*
X125984776Y-93306645D01*
X126000000Y-93269891D01*
X126000000Y-93250000D01*
X126253553Y-93250000D01*
X126616660Y-93613106D01*
X126616661Y-93613106D01*
X126625334Y-93599306D01*
X126625334Y-93599305D01*
X126684877Y-93429141D01*
X126684878Y-93429138D01*
X126705062Y-93250002D01*
X126705062Y-93249997D01*
X126684878Y-93070861D01*
X126625333Y-92900692D01*
X126616661Y-92886892D01*
X126616660Y-92886892D01*
X126253553Y-93250000D01*
X126000000Y-93250000D01*
X126000000Y-93230109D01*
X125984776Y-93193355D01*
X125956645Y-93165224D01*
X125919891Y-93150000D01*
X125880109Y-93150000D01*
X125843355Y-93165224D01*
X125815224Y-93193355D01*
X125800000Y-93230109D01*
X125526555Y-93230109D01*
X125415760Y-93119314D01*
X125350000Y-93053553D01*
X125284241Y-93119313D01*
X125284240Y-93119314D01*
X125153553Y-93250000D01*
X124900000Y-93250000D01*
X124900000Y-93230109D01*
X124884776Y-93193355D01*
X124856645Y-93165224D01*
X124819891Y-93150000D01*
X124780109Y-93150000D01*
X124743355Y-93165224D01*
X124715224Y-93193355D01*
X124700000Y-93230109D01*
X124426555Y-93230109D01*
X124315760Y-93119314D01*
X124250000Y-93053553D01*
X124184241Y-93119313D01*
X124184240Y-93119314D01*
X124053553Y-93250000D01*
X123800000Y-93250000D01*
X123800000Y-93230109D01*
X123784776Y-93193355D01*
X123756645Y-93165224D01*
X123719891Y-93150000D01*
X123680109Y-93150000D01*
X123643355Y-93165224D01*
X123615224Y-93193355D01*
X123600000Y-93230109D01*
X123326556Y-93230109D01*
X122983338Y-92886891D01*
X122983337Y-92886891D01*
X122974667Y-92900691D01*
X122974662Y-92900701D01*
X122915122Y-93070858D01*
X122915121Y-93070861D01*
X122894938Y-93249997D01*
X100500500Y-93249997D01*
X100500500Y-56734493D01*
X112130000Y-56734493D01*
X112130000Y-57075000D01*
X112980000Y-57075000D01*
X112980000Y-57575000D01*
X112130000Y-57575000D01*
X112130000Y-57915506D01*
X112158317Y-58094293D01*
X112214251Y-58266444D01*
X112214252Y-58266447D01*
X112296434Y-58427734D01*
X112402823Y-58574169D01*
X112530830Y-58702176D01*
X112677265Y-58808565D01*
X112838552Y-58890747D01*
X112838555Y-58890748D01*
X113010699Y-58946680D01*
X113010712Y-58946683D01*
X113030000Y-58949738D01*
X113030000Y-57991988D01*
X113039940Y-58009205D01*
X113095795Y-58065060D01*
X113164204Y-58104556D01*
X113240504Y-58125000D01*
X113319496Y-58125000D01*
X113395796Y-58104556D01*
X113464205Y-58065060D01*
X113520060Y-58009205D01*
X113530000Y-57991988D01*
X113530000Y-58949737D01*
X113549287Y-58946683D01*
X113549300Y-58946680D01*
X113721444Y-58890748D01*
X113721447Y-58890747D01*
X113882734Y-58808565D01*
X114029169Y-58702176D01*
X114157176Y-58574169D01*
X114263565Y-58427734D01*
X114345747Y-58266447D01*
X114345748Y-58266444D01*
X114401682Y-58094293D01*
X114430000Y-57915506D01*
X114430000Y-57575000D01*
X113580000Y-57575000D01*
X113580000Y-57075000D01*
X114163499Y-57075000D01*
X114225498Y-57091612D01*
X114262515Y-57112984D01*
X114402525Y-57150500D01*
X114402528Y-57150500D01*
X114797472Y-57150500D01*
X114797475Y-57150500D01*
X114937485Y-57112984D01*
X115063015Y-57040509D01*
X115165509Y-56938015D01*
X115237984Y-56812485D01*
X115275500Y-56672475D01*
X115275500Y-56527525D01*
X115268124Y-56499996D01*
X116194435Y-56499996D01*
X116194435Y-56500003D01*
X116214630Y-56679249D01*
X116214631Y-56679254D01*
X116274211Y-56849523D01*
X116370185Y-57002263D01*
X116372445Y-57005097D01*
X116373334Y-57007275D01*
X116373889Y-57008158D01*
X116373734Y-57008255D01*
X116398855Y-57069783D01*
X116399500Y-57082412D01*
X116399500Y-88913330D01*
X116399499Y-88913348D01*
X116399499Y-89079054D01*
X116399498Y-89079054D01*
X116440423Y-89231785D01*
X116469358Y-89281900D01*
X116469359Y-89281904D01*
X116469360Y-89281904D01*
X116519479Y-89368714D01*
X116519481Y-89368717D01*
X116638349Y-89487585D01*
X116638355Y-89487590D01*
X117669298Y-90518533D01*
X117702783Y-90579856D01*
X117704837Y-90592330D01*
X117714630Y-90679249D01*
X117774210Y-90849521D01*
X117795458Y-90883337D01*
X117870184Y-91002262D01*
X117997738Y-91129816D01*
X118021913Y-91145006D01*
X118068204Y-91197341D01*
X118078852Y-91266395D01*
X118050477Y-91330243D01*
X118021913Y-91354994D01*
X117997737Y-91370184D01*
X117870184Y-91497737D01*
X117774211Y-91650476D01*
X117714631Y-91820745D01*
X117714630Y-91820750D01*
X117694435Y-91999996D01*
X117694435Y-92000000D01*
X117714630Y-92179249D01*
X117714631Y-92179254D01*
X117774211Y-92349523D01*
X117868325Y-92499304D01*
X117870184Y-92502262D01*
X117997738Y-92629816D01*
X118150478Y-92725789D01*
X118319053Y-92784776D01*
X118320745Y-92785368D01*
X118320750Y-92785369D01*
X118499996Y-92805565D01*
X118500000Y-92805565D01*
X118500004Y-92805565D01*
X118679249Y-92785369D01*
X118679252Y-92785368D01*
X118679255Y-92785368D01*
X118849522Y-92725789D01*
X118890565Y-92700000D01*
X123503553Y-92700000D01*
X123503553Y-92700001D01*
X123699998Y-92896446D01*
X123699999Y-92896446D01*
X123850355Y-92746091D01*
X123896446Y-92700000D01*
X123876555Y-92680109D01*
X124150000Y-92680109D01*
X124150000Y-92719891D01*
X124165224Y-92756645D01*
X124193355Y-92784776D01*
X124230109Y-92800000D01*
X124269891Y-92800000D01*
X124306645Y-92784776D01*
X124334776Y-92756645D01*
X124350000Y-92719891D01*
X124350000Y-92700000D01*
X124603553Y-92700000D01*
X124649645Y-92746091D01*
X124800000Y-92896446D01*
X124996446Y-92700000D01*
X124976555Y-92680109D01*
X125250000Y-92680109D01*
X125250000Y-92719891D01*
X125265224Y-92756645D01*
X125293355Y-92784776D01*
X125330109Y-92800000D01*
X125369891Y-92800000D01*
X125406645Y-92784776D01*
X125434776Y-92756645D01*
X125450000Y-92719891D01*
X125450000Y-92700000D01*
X125703553Y-92700000D01*
X125749645Y-92746091D01*
X125900000Y-92896446D01*
X126096446Y-92700000D01*
X125900000Y-92503553D01*
X125834241Y-92569313D01*
X125834240Y-92569314D01*
X125703553Y-92700000D01*
X125450000Y-92700000D01*
X125450000Y-92680109D01*
X125434776Y-92643355D01*
X125406645Y-92615224D01*
X125369891Y-92600000D01*
X125330109Y-92600000D01*
X125293355Y-92615224D01*
X125265224Y-92643355D01*
X125250000Y-92680109D01*
X124976555Y-92680109D01*
X124865760Y-92569314D01*
X124800000Y-92503553D01*
X124734241Y-92569313D01*
X124734240Y-92569314D01*
X124603553Y-92700000D01*
X124350000Y-92700000D01*
X124350000Y-92680109D01*
X124334776Y-92643355D01*
X124306645Y-92615224D01*
X124269891Y-92600000D01*
X124230109Y-92600000D01*
X124193355Y-92615224D01*
X124165224Y-92643355D01*
X124150000Y-92680109D01*
X123876555Y-92680109D01*
X123699999Y-92503553D01*
X123503553Y-92700000D01*
X118890565Y-92700000D01*
X119002262Y-92629816D01*
X119129816Y-92502262D01*
X119225789Y-92349522D01*
X119285368Y-92179255D01*
X119288664Y-92149997D01*
X122894938Y-92149997D01*
X122894938Y-92150002D01*
X122915121Y-92329138D01*
X122974665Y-92499304D01*
X122983338Y-92513107D01*
X123346446Y-92150000D01*
X123346446Y-92149999D01*
X123326556Y-92130109D01*
X123600000Y-92130109D01*
X123600000Y-92169891D01*
X123615224Y-92206645D01*
X123643355Y-92234776D01*
X123680109Y-92250000D01*
X123719891Y-92250000D01*
X123756645Y-92234776D01*
X123784776Y-92206645D01*
X123800000Y-92169891D01*
X123800000Y-92149999D01*
X124053553Y-92149999D01*
X124053553Y-92150000D01*
X124099645Y-92196091D01*
X124250000Y-92346446D01*
X124446446Y-92150000D01*
X124426555Y-92130109D01*
X124700000Y-92130109D01*
X124700000Y-92169891D01*
X124715224Y-92206645D01*
X124743355Y-92234776D01*
X124780109Y-92250000D01*
X124819891Y-92250000D01*
X124856645Y-92234776D01*
X124884776Y-92206645D01*
X124900000Y-92169891D01*
X124900000Y-92149999D01*
X125153553Y-92149999D01*
X125153553Y-92150000D01*
X125199645Y-92196091D01*
X125350000Y-92346446D01*
X125546446Y-92150000D01*
X125526555Y-92130109D01*
X125800000Y-92130109D01*
X125800000Y-92169891D01*
X125815224Y-92206645D01*
X125843355Y-92234776D01*
X125880109Y-92250000D01*
X125919891Y-92250000D01*
X125956645Y-92234776D01*
X125984776Y-92206645D01*
X126000000Y-92169891D01*
X126000000Y-92150000D01*
X126253553Y-92150000D01*
X126616660Y-92513106D01*
X126616661Y-92513106D01*
X126625334Y-92499306D01*
X126625334Y-92499305D01*
X126684877Y-92329141D01*
X126684878Y-92329138D01*
X126705062Y-92150002D01*
X126705062Y-92149997D01*
X126684878Y-91970861D01*
X126625333Y-91800692D01*
X126616661Y-91786892D01*
X126616660Y-91786892D01*
X126253553Y-92150000D01*
X126000000Y-92150000D01*
X126000000Y-92130109D01*
X125984776Y-92093355D01*
X125956645Y-92065224D01*
X125919891Y-92050000D01*
X125880109Y-92050000D01*
X125843355Y-92065224D01*
X125815224Y-92093355D01*
X125800000Y-92130109D01*
X125526555Y-92130109D01*
X125396445Y-91999999D01*
X125350000Y-91953553D01*
X125303555Y-91999999D01*
X125303554Y-91999999D01*
X125153553Y-92149999D01*
X124900000Y-92149999D01*
X124900000Y-92130109D01*
X124884776Y-92093355D01*
X124856645Y-92065224D01*
X124819891Y-92050000D01*
X124780109Y-92050000D01*
X124743355Y-92065224D01*
X124715224Y-92093355D01*
X124700000Y-92130109D01*
X124426555Y-92130109D01*
X124296445Y-91999999D01*
X124250000Y-91953553D01*
X124203555Y-91999999D01*
X124203554Y-91999999D01*
X124053553Y-92149999D01*
X123800000Y-92149999D01*
X123800000Y-92130109D01*
X123784776Y-92093355D01*
X123756645Y-92065224D01*
X123719891Y-92050000D01*
X123680109Y-92050000D01*
X123643355Y-92065224D01*
X123615224Y-92093355D01*
X123600000Y-92130109D01*
X123326556Y-92130109D01*
X122983338Y-91786891D01*
X122983337Y-91786891D01*
X122974667Y-91800691D01*
X122974662Y-91800701D01*
X122915122Y-91970858D01*
X122915121Y-91970861D01*
X122894938Y-92149997D01*
X119288664Y-92149997D01*
X119295161Y-92092329D01*
X119322226Y-92027918D01*
X119330690Y-92018543D01*
X119458506Y-91890728D01*
X119458511Y-91890724D01*
X119468714Y-91880520D01*
X119468716Y-91880520D01*
X119580520Y-91768716D01*
X119648784Y-91650478D01*
X119659577Y-91631785D01*
X119700500Y-91479057D01*
X119700500Y-91433338D01*
X123336891Y-91433338D01*
X123699998Y-91796446D01*
X123848395Y-91648051D01*
X123896446Y-91599998D01*
X123876557Y-91580109D01*
X124150000Y-91580109D01*
X124150000Y-91619891D01*
X124165224Y-91656645D01*
X124193355Y-91684776D01*
X124230109Y-91700000D01*
X124269891Y-91700000D01*
X124306645Y-91684776D01*
X124334776Y-91656645D01*
X124350000Y-91619891D01*
X124350000Y-91599999D01*
X124603553Y-91599999D01*
X124800000Y-91796446D01*
X124948393Y-91648053D01*
X124996446Y-91599998D01*
X124976557Y-91580109D01*
X125250000Y-91580109D01*
X125250000Y-91619891D01*
X125265224Y-91656645D01*
X125293355Y-91684776D01*
X125330109Y-91700000D01*
X125369891Y-91700000D01*
X125406645Y-91684776D01*
X125434776Y-91656645D01*
X125450000Y-91619891D01*
X125450000Y-91599998D01*
X125703553Y-91599998D01*
X125703553Y-91599999D01*
X125900000Y-91796446D01*
X125900001Y-91796446D01*
X126263107Y-91433338D01*
X126249302Y-91424664D01*
X126176793Y-91399291D01*
X126120017Y-91358569D01*
X126100708Y-91323205D01*
X126075336Y-91250699D01*
X126075333Y-91250692D01*
X126066661Y-91236892D01*
X126066660Y-91236892D01*
X125703553Y-91599998D01*
X125450000Y-91599998D01*
X125450000Y-91580109D01*
X125434776Y-91543355D01*
X125406645Y-91515224D01*
X125369891Y-91500000D01*
X125330109Y-91500000D01*
X125293355Y-91515224D01*
X125265224Y-91543355D01*
X125250000Y-91580109D01*
X124976557Y-91580109D01*
X124800001Y-91403553D01*
X124603553Y-91599999D01*
X124350000Y-91599999D01*
X124350000Y-91580109D01*
X124334776Y-91543355D01*
X124306645Y-91515224D01*
X124269891Y-91500000D01*
X124230109Y-91500000D01*
X124193355Y-91515224D01*
X124165224Y-91543355D01*
X124150000Y-91580109D01*
X123876557Y-91580109D01*
X123533338Y-91236891D01*
X123524664Y-91250695D01*
X123524659Y-91250705D01*
X123499291Y-91323205D01*
X123458569Y-91379981D01*
X123423205Y-91399291D01*
X123350705Y-91424659D01*
X123350695Y-91424664D01*
X123336891Y-91433338D01*
X119700500Y-91433338D01*
X119700500Y-91320943D01*
X119700500Y-90883337D01*
X123886891Y-90883337D01*
X123886891Y-90883338D01*
X124250000Y-91246446D01*
X124250001Y-91246446D01*
X124613107Y-90883338D01*
X124613105Y-90883337D01*
X124986891Y-90883337D01*
X124986891Y-90883338D01*
X125350000Y-91246446D01*
X125350001Y-91246446D01*
X125713107Y-90883338D01*
X125699304Y-90874665D01*
X125529138Y-90815121D01*
X125350003Y-90794938D01*
X125349997Y-90794938D01*
X125170861Y-90815121D01*
X125170858Y-90815122D01*
X125000701Y-90874662D01*
X125000691Y-90874667D01*
X124986891Y-90883337D01*
X124613105Y-90883337D01*
X124599304Y-90874665D01*
X124429138Y-90815121D01*
X124250003Y-90794938D01*
X124249997Y-90794938D01*
X124070861Y-90815121D01*
X124070858Y-90815122D01*
X123900701Y-90874662D01*
X123900691Y-90874667D01*
X123886891Y-90883337D01*
X119700500Y-90883337D01*
X119700500Y-77736496D01*
X123430935Y-77736496D01*
X123430935Y-77736503D01*
X123451130Y-77915749D01*
X123451131Y-77915754D01*
X123510711Y-78086023D01*
X123606684Y-78238762D01*
X123734238Y-78366316D01*
X123886978Y-78462289D01*
X124057245Y-78521868D01*
X124057250Y-78521869D01*
X124236496Y-78542065D01*
X124236500Y-78542065D01*
X124236504Y-78542065D01*
X124415749Y-78521869D01*
X124415752Y-78521868D01*
X124415755Y-78521868D01*
X124586022Y-78462289D01*
X124738762Y-78366316D01*
X124738767Y-78366310D01*
X124741597Y-78364055D01*
X124743775Y-78363165D01*
X124744658Y-78362611D01*
X124744755Y-78362765D01*
X124806283Y-78337645D01*
X124818912Y-78337000D01*
X125936403Y-78337000D01*
X126003442Y-78356685D01*
X126024084Y-78373319D01*
X127669298Y-80018533D01*
X127702783Y-80079856D01*
X127704837Y-80092330D01*
X127714630Y-80179249D01*
X127774210Y-80349521D01*
X127870184Y-80502262D01*
X127997738Y-80629816D01*
X128150478Y-80725789D01*
X128320745Y-80785368D01*
X128320750Y-80785369D01*
X128499996Y-80805565D01*
X128500000Y-80805565D01*
X128500004Y-80805565D01*
X128679249Y-80785369D01*
X128679252Y-80785368D01*
X128679255Y-80785368D01*
X128849522Y-80725789D01*
X129002262Y-80629816D01*
X129129816Y-80502262D01*
X129225789Y-80349522D01*
X129285368Y-80179255D01*
X129295162Y-80092330D01*
X129305565Y-80000003D01*
X129305565Y-79999996D01*
X129285369Y-79820750D01*
X129285368Y-79820745D01*
X129225788Y-79650476D01*
X129129815Y-79497737D01*
X129002262Y-79370184D01*
X128849521Y-79274210D01*
X128679249Y-79214630D01*
X128592330Y-79204837D01*
X128527916Y-79177770D01*
X128518533Y-79169298D01*
X126724090Y-77374855D01*
X126724088Y-77374852D01*
X126605217Y-77255981D01*
X126605209Y-77255975D01*
X126503436Y-77197217D01*
X126503434Y-77197216D01*
X126468290Y-77176925D01*
X126468289Y-77176924D01*
X126455763Y-77173567D01*
X126315557Y-77135999D01*
X126157443Y-77135999D01*
X126149847Y-77135999D01*
X126149831Y-77136000D01*
X124818912Y-77136000D01*
X124751873Y-77116315D01*
X124741597Y-77108945D01*
X124738763Y-77106685D01*
X124738762Y-77106684D01*
X124681996Y-77071015D01*
X124586023Y-77010711D01*
X124415754Y-76951131D01*
X124415749Y-76951130D01*
X124236504Y-76930935D01*
X124236496Y-76930935D01*
X124057250Y-76951130D01*
X124057245Y-76951131D01*
X123886976Y-77010711D01*
X123734237Y-77106684D01*
X123606684Y-77234237D01*
X123510711Y-77386976D01*
X123451131Y-77557245D01*
X123451130Y-77557250D01*
X123430935Y-77736496D01*
X119700500Y-77736496D01*
X119700500Y-57720940D01*
X119659577Y-57568213D01*
X119659573Y-57568206D01*
X119580524Y-57431287D01*
X119580521Y-57431283D01*
X119580520Y-57431281D01*
X119468716Y-57319477D01*
X119468715Y-57319476D01*
X119464385Y-57315146D01*
X119464374Y-57315136D01*
X118676763Y-56527525D01*
X120049500Y-56527525D01*
X120049500Y-56672475D01*
X120087016Y-56812485D01*
X120087017Y-56812488D01*
X120159488Y-56938011D01*
X120159490Y-56938013D01*
X120159491Y-56938015D01*
X120261985Y-57040509D01*
X120261986Y-57040510D01*
X120261988Y-57040511D01*
X120387511Y-57112982D01*
X120387512Y-57112982D01*
X120387515Y-57112984D01*
X120527525Y-57150500D01*
X120527528Y-57150500D01*
X120672472Y-57150500D01*
X120672475Y-57150500D01*
X120812485Y-57112984D01*
X120849501Y-57091612D01*
X120911501Y-57075000D01*
X121620000Y-57075000D01*
X121620000Y-57575000D01*
X120770000Y-57575000D01*
X120770000Y-57915506D01*
X120798317Y-58094293D01*
X120854251Y-58266444D01*
X120854252Y-58266447D01*
X120936434Y-58427734D01*
X121042823Y-58574169D01*
X121170830Y-58702176D01*
X121317265Y-58808565D01*
X121478552Y-58890747D01*
X121478555Y-58890748D01*
X121650699Y-58946680D01*
X121650712Y-58946683D01*
X121670000Y-58949738D01*
X121670000Y-57991988D01*
X121679940Y-58009205D01*
X121735795Y-58065060D01*
X121804204Y-58104556D01*
X121880504Y-58125000D01*
X121959496Y-58125000D01*
X122035796Y-58104556D01*
X122104205Y-58065060D01*
X122160060Y-58009205D01*
X122170000Y-57991988D01*
X122170000Y-58949737D01*
X122189287Y-58946683D01*
X122189300Y-58946680D01*
X122361444Y-58890748D01*
X122361447Y-58890747D01*
X122522734Y-58808565D01*
X122637755Y-58724999D01*
X128304571Y-58724999D01*
X128304571Y-58725000D01*
X128324244Y-58937310D01*
X128382596Y-59142392D01*
X128382596Y-59142394D01*
X128477632Y-59333253D01*
X128590326Y-59482482D01*
X128606128Y-59503407D01*
X128763698Y-59647052D01*
X128944981Y-59759298D01*
X129143802Y-59836321D01*
X129353390Y-59875500D01*
X129353392Y-59875500D01*
X129566608Y-59875500D01*
X129566610Y-59875500D01*
X129776198Y-59836321D01*
X129975019Y-59759298D01*
X130156302Y-59647052D01*
X130313872Y-59503407D01*
X130442366Y-59333255D01*
X130537405Y-59142389D01*
X130595756Y-58937310D01*
X130602029Y-58869604D01*
X130627814Y-58804669D01*
X130684614Y-58763980D01*
X130754395Y-58760460D01*
X130815002Y-58795224D01*
X130847193Y-58857237D01*
X130849500Y-58881046D01*
X130849500Y-59422870D01*
X130849501Y-59422876D01*
X130855908Y-59482483D01*
X130906202Y-59617328D01*
X130906206Y-59617335D01*
X130992452Y-59732544D01*
X130992455Y-59732547D01*
X131107664Y-59818793D01*
X131107671Y-59818797D01*
X131242517Y-59869091D01*
X131242516Y-59869091D01*
X131249444Y-59869835D01*
X131302127Y-59875500D01*
X132697872Y-59875499D01*
X132757483Y-59869091D01*
X132892331Y-59818796D01*
X133007546Y-59732546D01*
X133093796Y-59617331D01*
X133144091Y-59482483D01*
X133150500Y-59422873D01*
X133150499Y-58881046D01*
X133170183Y-58814010D01*
X133222987Y-58768255D01*
X133292146Y-58758311D01*
X133355702Y-58787336D01*
X133393476Y-58846114D01*
X133397970Y-58869607D01*
X133404244Y-58937310D01*
X133462596Y-59142392D01*
X133462596Y-59142394D01*
X133557632Y-59333253D01*
X133670326Y-59482482D01*
X133686128Y-59503407D01*
X133843698Y-59647052D01*
X134024981Y-59759298D01*
X134223802Y-59836321D01*
X134433390Y-59875500D01*
X134433392Y-59875500D01*
X134646608Y-59875500D01*
X134646610Y-59875500D01*
X134856198Y-59836321D01*
X135055019Y-59759298D01*
X135236302Y-59647052D01*
X135393872Y-59503407D01*
X135522366Y-59333255D01*
X135617405Y-59142389D01*
X135675756Y-58937310D01*
X135695429Y-58725000D01*
X135675756Y-58512690D01*
X135617405Y-58307611D01*
X135617403Y-58307606D01*
X135617403Y-58307605D01*
X135522367Y-58116746D01*
X135393872Y-57946593D01*
X135268906Y-57832671D01*
X135236302Y-57802948D01*
X135055019Y-57690702D01*
X135055017Y-57690701D01*
X134955608Y-57652190D01*
X134856198Y-57613679D01*
X134646610Y-57574500D01*
X134433390Y-57574500D01*
X134223802Y-57613679D01*
X134223799Y-57613679D01*
X134223799Y-57613680D01*
X134024982Y-57690701D01*
X134024980Y-57690702D01*
X133843699Y-57802947D01*
X133686127Y-57946593D01*
X133557632Y-58116746D01*
X133462596Y-58307605D01*
X133462596Y-58307607D01*
X133404244Y-58512689D01*
X133397970Y-58580395D01*
X133372184Y-58645332D01*
X133315383Y-58686019D01*
X133245602Y-58689539D01*
X133184996Y-58654773D01*
X133152806Y-58592761D01*
X133150499Y-58568953D01*
X133150499Y-58027129D01*
X133150498Y-58027123D01*
X133150497Y-58027116D01*
X133144091Y-57967517D01*
X133093796Y-57832669D01*
X133093795Y-57832668D01*
X133093793Y-57832664D01*
X133007547Y-57717455D01*
X133007544Y-57717452D01*
X132892335Y-57631206D01*
X132892328Y-57631202D01*
X132757482Y-57580908D01*
X132757483Y-57580908D01*
X132697883Y-57574501D01*
X132697881Y-57574500D01*
X132697873Y-57574500D01*
X132697864Y-57574500D01*
X131302129Y-57574500D01*
X131302123Y-57574501D01*
X131242516Y-57580908D01*
X131107671Y-57631202D01*
X131107664Y-57631206D01*
X130992455Y-57717452D01*
X130992452Y-57717455D01*
X130906206Y-57832664D01*
X130906202Y-57832671D01*
X130855908Y-57967517D01*
X130851082Y-58012413D01*
X130849501Y-58027123D01*
X130849500Y-58027135D01*
X130849500Y-58568950D01*
X130829815Y-58635989D01*
X130777011Y-58681744D01*
X130707853Y-58691688D01*
X130644297Y-58662663D01*
X130606523Y-58603885D01*
X130602029Y-58580391D01*
X130595756Y-58512690D01*
X130537405Y-58307611D01*
X130537403Y-58307606D01*
X130537403Y-58307605D01*
X130442367Y-58116746D01*
X130313872Y-57946593D01*
X130188906Y-57832671D01*
X130156302Y-57802948D01*
X129975019Y-57690702D01*
X129975017Y-57690701D01*
X129875608Y-57652190D01*
X129776198Y-57613679D01*
X129566610Y-57574500D01*
X129353390Y-57574500D01*
X129143802Y-57613679D01*
X129143799Y-57613679D01*
X129143799Y-57613680D01*
X128944982Y-57690701D01*
X128944980Y-57690702D01*
X128763699Y-57802947D01*
X128606127Y-57946593D01*
X128477632Y-58116746D01*
X128382596Y-58307605D01*
X128382596Y-58307607D01*
X128324244Y-58512689D01*
X128304571Y-58724999D01*
X122637755Y-58724999D01*
X122669169Y-58702176D01*
X122797176Y-58574169D01*
X122903565Y-58427734D01*
X122985747Y-58266447D01*
X122985748Y-58266444D01*
X123041682Y-58094293D01*
X123070000Y-57915506D01*
X123070000Y-57575000D01*
X122220000Y-57575000D01*
X122220000Y-57075000D01*
X123070000Y-57075000D01*
X123070000Y-56734493D01*
X123041682Y-56555706D01*
X122985748Y-56383555D01*
X122985747Y-56383552D01*
X122903565Y-56222265D01*
X122797176Y-56075830D01*
X122669169Y-55947823D01*
X122522734Y-55841434D01*
X122361447Y-55759252D01*
X122361441Y-55759250D01*
X122189295Y-55703318D01*
X122189285Y-55703315D01*
X122170000Y-55700260D01*
X122170000Y-56658011D01*
X122160060Y-56640795D01*
X122104205Y-56584940D01*
X122035796Y-56545444D01*
X121959496Y-56525000D01*
X121880504Y-56525000D01*
X121804204Y-56545444D01*
X121735795Y-56584940D01*
X121679940Y-56640795D01*
X121670000Y-56658011D01*
X121670000Y-55700260D01*
X121650714Y-55703315D01*
X121650704Y-55703318D01*
X121478558Y-55759250D01*
X121478552Y-55759252D01*
X121317265Y-55841434D01*
X121170830Y-55947823D01*
X121042828Y-56075825D01*
X121034657Y-56087073D01*
X120979327Y-56129738D01*
X120909713Y-56135716D01*
X120872340Y-56121573D01*
X120812488Y-56087017D01*
X120812489Y-56087017D01*
X120801006Y-56083940D01*
X120672475Y-56049500D01*
X120527525Y-56049500D01*
X120398993Y-56083940D01*
X120387511Y-56087017D01*
X120261988Y-56159488D01*
X120261982Y-56159493D01*
X120159493Y-56261982D01*
X120159488Y-56261988D01*
X120087017Y-56387511D01*
X120087016Y-56387515D01*
X120049500Y-56527525D01*
X118676763Y-56527525D01*
X118630703Y-56481465D01*
X118597218Y-56420142D01*
X118595166Y-56407686D01*
X118585371Y-56320745D01*
X118525792Y-56150478D01*
X118429819Y-55997738D01*
X118302265Y-55870184D01*
X118256510Y-55841434D01*
X118149526Y-55774211D01*
X117979257Y-55714631D01*
X117979252Y-55714630D01*
X117800007Y-55694435D01*
X117799999Y-55694435D01*
X117620753Y-55714630D01*
X117620740Y-55714633D01*
X117443909Y-55776510D01*
X117443160Y-55774369D01*
X117384824Y-55783958D01*
X117356408Y-55775611D01*
X117356094Y-55776510D01*
X117179262Y-55714633D01*
X117179249Y-55714630D01*
X117000004Y-55694435D01*
X116999996Y-55694435D01*
X116820750Y-55714630D01*
X116820745Y-55714631D01*
X116650476Y-55774211D01*
X116497737Y-55870184D01*
X116370184Y-55997737D01*
X116274211Y-56150476D01*
X116214631Y-56320745D01*
X116214630Y-56320750D01*
X116194435Y-56499996D01*
X115268124Y-56499996D01*
X115237984Y-56387515D01*
X115165509Y-56261985D01*
X115063015Y-56159491D01*
X115063013Y-56159490D01*
X115063011Y-56159488D01*
X114937488Y-56087017D01*
X114937489Y-56087017D01*
X114926006Y-56083940D01*
X114797475Y-56049500D01*
X114402525Y-56049500D01*
X114262515Y-56087016D01*
X114262513Y-56087016D01*
X114257411Y-56088384D01*
X114187561Y-56086721D01*
X114137636Y-56056290D01*
X114029169Y-55947823D01*
X113882734Y-55841434D01*
X113721447Y-55759252D01*
X113721441Y-55759250D01*
X113549295Y-55703318D01*
X113549285Y-55703315D01*
X113530000Y-55700260D01*
X113530000Y-56658011D01*
X113520060Y-56640795D01*
X113464205Y-56584940D01*
X113395796Y-56545444D01*
X113319496Y-56525000D01*
X113240504Y-56525000D01*
X113164204Y-56545444D01*
X113095795Y-56584940D01*
X113039940Y-56640795D01*
X113030000Y-56658011D01*
X113030000Y-55700260D01*
X113010714Y-55703315D01*
X113010704Y-55703318D01*
X112838558Y-55759250D01*
X112838552Y-55759252D01*
X112677265Y-55841434D01*
X112530830Y-55947823D01*
X112402823Y-56075830D01*
X112296434Y-56222265D01*
X112214252Y-56383552D01*
X112214251Y-56383555D01*
X112158317Y-56555706D01*
X112130000Y-56734493D01*
X100500500Y-56734493D01*
X100500500Y-53579025D01*
X102774526Y-53579025D01*
X102847513Y-53630132D01*
X102847521Y-53630136D01*
X103053668Y-53726264D01*
X103053682Y-53726269D01*
X103273389Y-53785139D01*
X103273400Y-53785141D01*
X103499998Y-53804966D01*
X103500002Y-53804966D01*
X103726599Y-53785141D01*
X103726610Y-53785139D01*
X103946317Y-53726269D01*
X103946331Y-53726264D01*
X104152478Y-53630136D01*
X104225471Y-53579024D01*
X103500000Y-52853553D01*
X102774526Y-53579025D01*
X100500500Y-53579025D01*
X100500500Y-52499997D01*
X102195034Y-52499997D01*
X102195034Y-52500002D01*
X102214858Y-52726599D01*
X102214860Y-52726610D01*
X102273730Y-52946317D01*
X102273735Y-52946331D01*
X102369863Y-53152478D01*
X102420974Y-53225472D01*
X103146447Y-52500000D01*
X103146447Y-52499999D01*
X103106952Y-52460504D01*
X103200000Y-52460504D01*
X103200000Y-52539496D01*
X103220444Y-52615796D01*
X103259940Y-52684205D01*
X103315795Y-52740060D01*
X103384204Y-52779556D01*
X103460504Y-52800000D01*
X103539496Y-52800000D01*
X103615796Y-52779556D01*
X103684205Y-52740060D01*
X103740060Y-52684205D01*
X103779556Y-52615796D01*
X103800000Y-52539496D01*
X103800000Y-52499999D01*
X103853553Y-52499999D01*
X103853553Y-52500000D01*
X104579024Y-53225471D01*
X104630136Y-53152478D01*
X104726264Y-52946331D01*
X104726269Y-52946317D01*
X104785139Y-52726610D01*
X104785141Y-52726599D01*
X104804966Y-52500002D01*
X104804966Y-52499997D01*
X104785141Y-52273400D01*
X104785139Y-52273389D01*
X104726269Y-52053682D01*
X104726264Y-52053668D01*
X104654599Y-51899983D01*
X105799500Y-51899983D01*
X105799500Y-53100001D01*
X105799501Y-53100018D01*
X105810000Y-53202796D01*
X105810001Y-53202799D01*
X105865185Y-53369331D01*
X105865186Y-53369334D01*
X105957288Y-53518656D01*
X106081344Y-53642712D01*
X106230666Y-53734814D01*
X106397203Y-53789999D01*
X106499991Y-53800500D01*
X107700008Y-53800499D01*
X107802797Y-53789999D01*
X107969334Y-53734814D01*
X108118656Y-53642712D01*
X108242712Y-53518656D01*
X108334814Y-53369334D01*
X108389999Y-53202797D01*
X108400500Y-53100009D01*
X108400500Y-52759493D01*
X112130000Y-52759493D01*
X112130000Y-53250000D01*
X112980000Y-53250000D01*
X112980000Y-53750000D01*
X112130000Y-53750000D01*
X112130000Y-54240506D01*
X112158317Y-54419293D01*
X112214251Y-54591444D01*
X112214252Y-54591447D01*
X112296434Y-54752734D01*
X112402823Y-54899169D01*
X112530830Y-55027176D01*
X112677265Y-55133565D01*
X112838552Y-55215747D01*
X112838555Y-55215748D01*
X113010699Y-55271680D01*
X113010712Y-55271683D01*
X113030000Y-55274738D01*
X113030000Y-54316988D01*
X113039940Y-54334205D01*
X113095795Y-54390060D01*
X113164204Y-54429556D01*
X113240504Y-54450000D01*
X113319496Y-54450000D01*
X113395796Y-54429556D01*
X113464205Y-54390060D01*
X113520060Y-54334205D01*
X113530000Y-54316988D01*
X113530000Y-55274737D01*
X113549287Y-55271683D01*
X113549300Y-55271680D01*
X113721444Y-55215748D01*
X113721447Y-55215747D01*
X113882734Y-55133565D01*
X114029169Y-55027176D01*
X114157176Y-54899169D01*
X114263565Y-54752734D01*
X114345747Y-54591447D01*
X114345748Y-54591444D01*
X114401682Y-54419293D01*
X114430000Y-54240506D01*
X114430000Y-53750000D01*
X113580000Y-53750000D01*
X113580000Y-53250000D01*
X114430000Y-53250000D01*
X114430000Y-52759493D01*
X120770000Y-52759493D01*
X120770000Y-53250000D01*
X121620000Y-53250000D01*
X121620000Y-53750000D01*
X120770000Y-53750000D01*
X120770000Y-54240506D01*
X120798317Y-54419293D01*
X120854251Y-54591444D01*
X120854252Y-54591447D01*
X120936434Y-54752734D01*
X121042823Y-54899169D01*
X121170830Y-55027176D01*
X121317265Y-55133565D01*
X121478552Y-55215747D01*
X121478555Y-55215748D01*
X121650699Y-55271680D01*
X121650712Y-55271683D01*
X121670000Y-55274738D01*
X121670000Y-54316988D01*
X121679940Y-54334205D01*
X121735795Y-54390060D01*
X121804204Y-54429556D01*
X121880504Y-54450000D01*
X121959496Y-54450000D01*
X122035796Y-54429556D01*
X122104205Y-54390060D01*
X122160060Y-54334205D01*
X122170000Y-54316988D01*
X122170000Y-55274737D01*
X122189287Y-55271683D01*
X122189300Y-55271680D01*
X122361444Y-55215748D01*
X122361447Y-55215747D01*
X122522734Y-55133565D01*
X122669169Y-55027176D01*
X122797176Y-54899169D01*
X122903565Y-54752734D01*
X122985747Y-54591447D01*
X122985748Y-54591444D01*
X123041682Y-54419293D01*
X123070000Y-54240506D01*
X123070000Y-53750000D01*
X122220000Y-53750000D01*
X122220000Y-53250000D01*
X123070000Y-53250000D01*
X123070000Y-52759493D01*
X123041682Y-52580706D01*
X122985748Y-52408555D01*
X122985747Y-52408552D01*
X122903565Y-52247265D01*
X122797176Y-52100830D01*
X122669169Y-51972823D01*
X122522734Y-51866434D01*
X122361447Y-51784252D01*
X122361441Y-51784250D01*
X122189295Y-51728318D01*
X122189285Y-51728315D01*
X122170000Y-51725260D01*
X122170000Y-52683011D01*
X122160060Y-52665795D01*
X122104205Y-52609940D01*
X122035796Y-52570444D01*
X121959496Y-52550000D01*
X121880504Y-52550000D01*
X121804204Y-52570444D01*
X121735795Y-52609940D01*
X121679940Y-52665795D01*
X121670000Y-52683011D01*
X121670000Y-51725260D01*
X121650714Y-51728315D01*
X121650704Y-51728318D01*
X121478558Y-51784250D01*
X121478552Y-51784252D01*
X121317265Y-51866434D01*
X121170830Y-51972823D01*
X121042823Y-52100830D01*
X120936434Y-52247265D01*
X120854252Y-52408552D01*
X120854251Y-52408555D01*
X120798317Y-52580706D01*
X120770000Y-52759493D01*
X114430000Y-52759493D01*
X114401682Y-52580706D01*
X114345748Y-52408555D01*
X114345747Y-52408552D01*
X114263565Y-52247265D01*
X114157176Y-52100830D01*
X114029169Y-51972823D01*
X113882734Y-51866434D01*
X113721447Y-51784252D01*
X113721441Y-51784250D01*
X113549295Y-51728318D01*
X113549285Y-51728315D01*
X113530000Y-51725260D01*
X113530000Y-52683011D01*
X113520060Y-52665795D01*
X113464205Y-52609940D01*
X113395796Y-52570444D01*
X113319496Y-52550000D01*
X113240504Y-52550000D01*
X113164204Y-52570444D01*
X113095795Y-52609940D01*
X113039940Y-52665795D01*
X113030000Y-52683011D01*
X113030000Y-51725260D01*
X113010714Y-51728315D01*
X113010704Y-51728318D01*
X112838558Y-51784250D01*
X112838552Y-51784252D01*
X112677265Y-51866434D01*
X112530830Y-51972823D01*
X112402823Y-52100830D01*
X112296434Y-52247265D01*
X112214252Y-52408552D01*
X112214251Y-52408555D01*
X112158317Y-52580706D01*
X112130000Y-52759493D01*
X108400500Y-52759493D01*
X108400499Y-51899992D01*
X108389999Y-51797203D01*
X108334814Y-51630666D01*
X108242712Y-51481344D01*
X108118656Y-51357288D01*
X108025888Y-51300069D01*
X107969336Y-51265187D01*
X107969331Y-51265185D01*
X107967862Y-51264698D01*
X107802797Y-51210001D01*
X107802795Y-51210000D01*
X107700010Y-51199500D01*
X106499998Y-51199500D01*
X106499981Y-51199501D01*
X106397203Y-51210000D01*
X106397200Y-51210001D01*
X106230668Y-51265185D01*
X106230663Y-51265187D01*
X106081342Y-51357289D01*
X105957289Y-51481342D01*
X105865187Y-51630663D01*
X105865186Y-51630666D01*
X105810001Y-51797203D01*
X105810001Y-51797204D01*
X105810000Y-51797204D01*
X105799500Y-51899983D01*
X104654599Y-51899983D01*
X104630136Y-51847521D01*
X104630132Y-51847513D01*
X104579025Y-51774526D01*
X103853553Y-52499999D01*
X103800000Y-52499999D01*
X103800000Y-52460504D01*
X103779556Y-52384204D01*
X103740060Y-52315795D01*
X103684205Y-52259940D01*
X103615796Y-52220444D01*
X103539496Y-52200000D01*
X103460504Y-52200000D01*
X103384204Y-52220444D01*
X103315795Y-52259940D01*
X103259940Y-52315795D01*
X103220444Y-52384204D01*
X103200000Y-52460504D01*
X103106952Y-52460504D01*
X102420974Y-51774526D01*
X102420973Y-51774526D01*
X102369868Y-51847512D01*
X102369866Y-51847516D01*
X102273734Y-52053673D01*
X102273730Y-52053682D01*
X102214860Y-52273389D01*
X102214858Y-52273400D01*
X102195034Y-52499997D01*
X100500500Y-52499997D01*
X100500500Y-51420973D01*
X102774526Y-51420973D01*
X102774526Y-51420974D01*
X103500000Y-52146447D01*
X103500001Y-52146447D01*
X104225472Y-51420974D01*
X104152478Y-51369863D01*
X103946331Y-51273735D01*
X103946317Y-51273730D01*
X103726610Y-51214860D01*
X103726599Y-51214858D01*
X103500002Y-51195034D01*
X103499998Y-51195034D01*
X103273400Y-51214858D01*
X103273389Y-51214860D01*
X103053682Y-51273730D01*
X103053673Y-51273734D01*
X102847516Y-51369866D01*
X102847512Y-51369868D01*
X102774526Y-51420973D01*
X100500500Y-51420973D01*
X100500500Y-50624500D01*
X100520185Y-50557461D01*
X100572989Y-50511706D01*
X100624500Y-50500500D01*
X149375500Y-50500500D01*
X149442539Y-50520185D01*
G37*
%TD.AperFunction*%
%TD*%
M02*
