M48
; DRILL file {KiCad 8.0.6} date 2024-10-24T11:46:02+0200
; FORMAT={-:-/ absolute / inch / decimal}
; #@! TF.CreationDate,2024-10-24T11:46:02+02:00
; #@! TF.GenerationSoftware,Kicad,Pcbnew,8.0.6
; #@! TF.FileFunction,Plated,1,2,PTH
FMAT,2
INCH
; #@! TA.AperFunction,Plated,PTH,ComponentDrill
T1C0.0079
; #@! TA.AperFunction,Plated,PTH,ViaDrill
T2C0.0118
; #@! TA.AperFunction,Plated,PTH,ComponentDrill
T3C0.0236
; #@! TA.AperFunction,Plated,PTH,ComponentDrill
T4C0.0315
%
G90
G05
T1
X4.8701Y-3.628
X4.8701Y-3.6713
X4.8917Y-3.6063
X4.8917Y-3.6496
X4.8917Y-3.6929
X4.9134Y-3.628
X4.9134Y-3.6713
X4.935Y-3.6063
X4.935Y-3.6496
X4.935Y-3.6929
X4.9567Y-3.628
X4.9567Y-3.6713
T2
X4.0157Y-2.3386
X4.1929Y-2.3425
X4.6063Y-2.2244
X4.6378Y-2.2244
X4.6654Y-3.563
X4.6654Y-3.622
X4.8912Y-3.0605
X5.0591Y-3.1496
X5.0787Y-2.6772
X5.5512Y-3.7992
T3
X4.0748Y-2.0669
X4.2165Y-2.0669
T4
X5.0969Y-2.312
X5.1969Y-2.312
X5.2969Y-2.312
T3
G00X4.4598Y-2.1319
M15
G01X4.4598Y-2.0807
M16
G05
G00X4.4598Y-2.2766
M15
G01X4.4598Y-2.2372
M16
G05
G00X4.8Y-2.1319
M15
G01X4.8Y-2.0807
M16
G05
G00X4.8Y-2.2766
M15
G01X4.8Y-2.2372
M16
G05
M30
