%TF.GenerationSoftware,KiCad,Pcbnew,8.0.6*%
%TF.CreationDate,2024-10-24T11:44:03+02:00*%
%TF.ProjectId,IoT_Kicad_MP,496f545f-4b69-4636-9164-5f4d502e6b69,rev?*%
%TF.SameCoordinates,Original*%
%TF.FileFunction,Copper,L1,Top*%
%TF.FilePolarity,Positive*%
%FSLAX46Y46*%
G04 Gerber Fmt 4.6, Leading zero omitted, Abs format (unit mm)*
G04 Created by KiCad (PCBNEW 8.0.6) date 2024-10-24 11:44:03*
%MOMM*%
%LPD*%
G01*
G04 APERTURE LIST*
G04 Aperture macros list*
%AMRoundRect*
0 Rectangle with rounded corners*
0 $1 Rounding radius*
0 $2 $3 $4 $5 $6 $7 $8 $9 X,Y pos of 4 corners*
0 Add a 4 corners polygon primitive as box body*
4,1,4,$2,$3,$4,$5,$6,$7,$8,$9,$2,$3,0*
0 Add four circle primitives for the rounded corners*
1,1,$1+$1,$2,$3*
1,1,$1+$1,$4,$5*
1,1,$1+$1,$6,$7*
1,1,$1+$1,$8,$9*
0 Add four rect primitives between the rounded corners*
20,1,$1+$1,$2,$3,$4,$5,0*
20,1,$1+$1,$4,$5,$6,$7,0*
20,1,$1+$1,$6,$7,$8,$9,0*
20,1,$1+$1,$8,$9,$2,$3,0*%
G04 Aperture macros list end*
%TA.AperFunction,ComponentPad*%
%ADD10R,1.300000X1.300000*%
%TD*%
%TA.AperFunction,ComponentPad*%
%ADD11C,1.300000*%
%TD*%
%TA.AperFunction,SMDPad,CuDef*%
%ADD12R,0.300000X0.800000*%
%TD*%
%TA.AperFunction,SMDPad,CuDef*%
%ADD13R,1.550000X1.750000*%
%TD*%
%TA.AperFunction,SMDPad,CuDef*%
%ADD14R,0.600000X0.350000*%
%TD*%
%TA.AperFunction,SMDPad,CuDef*%
%ADD15R,1.100000X1.700000*%
%TD*%
%TA.AperFunction,SMDPad,CuDef*%
%ADD16R,0.165000X0.165000*%
%TD*%
%TA.AperFunction,SMDPad,CuDef*%
%ADD17RoundRect,0.250000X-0.450000X0.262500X-0.450000X-0.262500X0.450000X-0.262500X0.450000X0.262500X0*%
%TD*%
%TA.AperFunction,SMDPad,CuDef*%
%ADD18R,1.000000X2.000000*%
%TD*%
%TA.AperFunction,SMDPad,CuDef*%
%ADD19R,0.520000X1.000000*%
%TD*%
%TA.AperFunction,SMDPad,CuDef*%
%ADD20R,0.270000X1.000000*%
%TD*%
%TA.AperFunction,ComponentPad*%
%ADD21O,1.300000X2.300000*%
%TD*%
%TA.AperFunction,ComponentPad*%
%ADD22O,1.300000X2.600000*%
%TD*%
%TA.AperFunction,SMDPad,CuDef*%
%ADD23R,1.500000X0.900000*%
%TD*%
%TA.AperFunction,HeatsinkPad*%
%ADD24C,0.600000*%
%TD*%
%TA.AperFunction,SMDPad,CuDef*%
%ADD25R,2.900000X2.900000*%
%TD*%
%TA.AperFunction,SMDPad,CuDef*%
%ADD26RoundRect,0.250000X0.262500X0.450000X-0.262500X0.450000X-0.262500X-0.450000X0.262500X-0.450000X0*%
%TD*%
%TA.AperFunction,ComponentPad*%
%ADD27RoundRect,0.250000X0.550000X0.550000X-0.550000X0.550000X-0.550000X-0.550000X0.550000X-0.550000X0*%
%TD*%
%TA.AperFunction,ComponentPad*%
%ADD28C,1.600000*%
%TD*%
%TA.AperFunction,SMDPad,CuDef*%
%ADD29RoundRect,0.243750X-0.456250X0.243750X-0.456250X-0.243750X0.456250X-0.243750X0.456250X0.243750X0*%
%TD*%
%TA.AperFunction,SMDPad,CuDef*%
%ADD30RoundRect,0.243750X0.456250X-0.243750X0.456250X0.243750X-0.456250X0.243750X-0.456250X-0.243750X0*%
%TD*%
%TA.AperFunction,SMDPad,CuDef*%
%ADD31RoundRect,0.250000X-0.475000X0.250000X-0.475000X-0.250000X0.475000X-0.250000X0.475000X0.250000X0*%
%TD*%
%TA.AperFunction,SMDPad,CuDef*%
%ADD32RoundRect,0.250000X0.475000X-0.250000X0.475000X0.250000X-0.475000X0.250000X-0.475000X-0.250000X0*%
%TD*%
%TA.AperFunction,ViaPad*%
%ADD33C,0.600000*%
%TD*%
%TA.AperFunction,Conductor*%
%ADD34C,0.200000*%
%TD*%
G04 APERTURE END LIST*
D10*
%TO.P,S1,1,COM*%
%TO.N,Net-(S1-COM)*%
X132000000Y-58725000D03*
D11*
%TO.P,S1,2,NO*%
%TO.N,+3.3V*%
X129460000Y-58725000D03*
%TO.P,S1,3,NC*%
%TO.N,unconnected-(S1-NC-Pad3)*%
X134540000Y-58725000D03*
%TD*%
D12*
%TO.P,IC3,1,VDD_1*%
%TO.N,Net-(D1-A)*%
X107750000Y-63500000D03*
%TO.P,IC3,2,VDD_2*%
%TO.N,unconnected-(IC3-VDD_2-Pad2)*%
X107250000Y-63500000D03*
%TO.P,IC3,3,VBAT_1*%
%TO.N,+BATT*%
X106750000Y-63500000D03*
%TO.P,IC3,4,VBAT_2*%
%TO.N,unconnected-(IC3-VBAT_2-Pad4)*%
X106250000Y-63500000D03*
%TO.P,IC3,5,STAT*%
%TO.N,Net-(D3-A)*%
X106250000Y-66500000D03*
%TO.P,IC3,6,VSS*%
%TO.N,GND*%
X106750000Y-66500000D03*
%TO.P,IC3,7,NC*%
%TO.N,unconnected-(IC3-NC-Pad7)*%
X107250000Y-66500000D03*
%TO.P,IC3,8,PROG*%
%TO.N,Net-(IC3-PROG)*%
X107750000Y-66500000D03*
D13*
%TO.P,IC3,9,EP*%
%TO.N,GND*%
X107000000Y-65000000D03*
%TD*%
D14*
%TO.P,IC2,1,SCL*%
%TO.N,SCL*%
X127224000Y-78386500D03*
%TO.P,IC2,2,GND_1*%
%TO.N,GND*%
X127224000Y-77736500D03*
%TO.P,IC2,3,ALERT*%
%TO.N,Net-(IC2-ALERT)*%
X127224000Y-77086500D03*
%TO.P,IC2,4,ADD0*%
%TO.N,GND*%
X125124000Y-77086500D03*
%TO.P,IC2,5,V+*%
%TO.N,+3.3V*%
X125124000Y-77736500D03*
%TO.P,IC2,6,SDA*%
%TO.N,SDA*%
X125124000Y-78386500D03*
D15*
%TO.P,IC2,7,GND_2*%
%TO.N,GND*%
X126174000Y-77736500D03*
%TD*%
D16*
%TO.P,IC1,A1,IN*%
%TO.N,+BATT*%
X105000000Y-56500000D03*
%TO.P,IC1,A2,OUT*%
%TO.N,+3.3V*%
X105350000Y-56500000D03*
%TO.P,IC1,B1,EN*%
%TO.N,+BATT*%
X105000000Y-56850000D03*
%TO.P,IC1,B2,GND*%
%TO.N,GND*%
X105350000Y-56850000D03*
%TD*%
D17*
%TO.P,R6,1*%
%TO.N,Net-(S1-COM)*%
X132000000Y-62375000D03*
%TO.P,R6,2*%
%TO.N,Net-(D2-A)*%
X132000000Y-64200000D03*
%TD*%
D18*
%TO.P,J2,*%
%TO.N,*%
X119000000Y-53500000D03*
X116200000Y-53500000D03*
D19*
%TO.P,J2,A1,GND*%
%TO.N,GND*%
X120700000Y-57700000D03*
%TO.P,J2,A4,VBUS*%
%TO.N,Net-(D1-A)*%
X119950000Y-57700000D03*
D20*
%TO.P,J2,A5,CC1*%
%TO.N,unconnected-(J2-CC1-PadA5)*%
X119350000Y-57700000D03*
%TO.P,J2,A6,D+*%
%TO.N,USB_D+*%
X117850000Y-57700000D03*
%TO.P,J2,A7,D-*%
%TO.N,USB_D-*%
X116850000Y-57700000D03*
%TO.P,J2,A8*%
%TO.N,N/C*%
X115850000Y-57700000D03*
D19*
%TO.P,J2,A9,VBUS*%
%TO.N,Net-(D1-A)*%
X115250000Y-57700000D03*
%TO.P,J2,A12,GND*%
%TO.N,GND*%
X114500000Y-57700000D03*
%TO.P,J2,B1,GND*%
X114500000Y-57700000D03*
%TO.P,J2,B4,VBUS*%
%TO.N,Net-(D1-A)*%
X115250000Y-57700000D03*
D20*
%TO.P,J2,B5,CC2*%
%TO.N,unconnected-(J2-CC2-PadB5)*%
X116350000Y-57700000D03*
%TO.P,J2,B6,D+*%
%TO.N,USB_D+*%
X117350000Y-57700000D03*
%TO.P,J2,B7,D-*%
%TO.N,USB_D-*%
X118350000Y-57700000D03*
%TO.P,J2,B8*%
%TO.N,N/C*%
X118850000Y-57700000D03*
D19*
%TO.P,J2,B9,VBUS*%
%TO.N,Net-(D1-A)*%
X119950000Y-57700000D03*
%TO.P,J2,B12,GND*%
%TO.N,GND*%
X120700000Y-57700000D03*
D21*
%TO.P,J2,S1,SHIELD*%
X121920000Y-57325000D03*
D22*
X121920000Y-53500000D03*
D21*
X113280000Y-57325000D03*
D22*
X113280000Y-53500000D03*
%TD*%
D23*
%TO.P,U1,1,3V3*%
%TO.N,+3.3V*%
X134510000Y-98900000D03*
%TO.P,U1,2,EN*%
%TO.N,Net-(D2-A)*%
X134510000Y-97400000D03*
%TO.P,U1,3,IO4*%
%TO.N,unconnected-(U1-IO4-Pad3)*%
X134510000Y-95900000D03*
%TO.P,U1,4,IO5*%
%TO.N,unconnected-(U1-IO5-Pad4)*%
X134510000Y-94400000D03*
%TO.P,U1,5,IO6*%
%TO.N,unconnected-(U1-IO6-Pad5)*%
X134510000Y-92900000D03*
%TO.P,U1,6,IO7*%
%TO.N,unconnected-(U1-IO7-Pad6)*%
X134510000Y-91400000D03*
%TO.P,U1,7,IO8*%
%TO.N,SDA*%
X134510000Y-89900000D03*
%TO.P,U1,8,IO9*%
%TO.N,SCL*%
X134510000Y-88400000D03*
%TO.P,U1,9,GND*%
%TO.N,GND*%
X134510000Y-86900000D03*
%TO.P,U1,10,IO10*%
%TO.N,unconnected-(U1-IO10-Pad10)*%
X117010000Y-86900000D03*
%TO.P,U1,11,IO20/RXD*%
%TO.N,unconnected-(U1-IO20{slash}RXD-Pad11)*%
X117010000Y-88400000D03*
%TO.P,U1,12,IO21/TXD*%
%TO.N,unconnected-(U1-IO21{slash}TXD-Pad12)*%
X117010000Y-89900000D03*
%TO.P,U1,13,IO18*%
%TO.N,USB_D-*%
X117010000Y-91400000D03*
%TO.P,U1,14,IO19*%
%TO.N,USB_D+*%
X117010000Y-92900000D03*
%TO.P,U1,15,IO3*%
%TO.N,unconnected-(U1-IO3-Pad15)*%
X117010000Y-94400000D03*
%TO.P,U1,16,IO2*%
%TO.N,unconnected-(U1-IO2-Pad16)*%
X117010000Y-95900000D03*
%TO.P,U1,17,IO1*%
%TO.N,unconnected-(U1-IO1-Pad17)*%
X117010000Y-97400000D03*
%TO.P,U1,18,IO0*%
%TO.N,unconnected-(U1-IO0-Pad18)*%
X117010000Y-98900000D03*
D24*
%TO.P,U1,19,GND*%
%TO.N,GND*%
X125900000Y-93250000D03*
X125900000Y-92150000D03*
X125350000Y-93800000D03*
X125350000Y-92700000D03*
X125350000Y-91600000D03*
X124800000Y-93250000D03*
D25*
X124800000Y-92700000D03*
D24*
X124800000Y-92150000D03*
X124250000Y-93800000D03*
X124250000Y-92700000D03*
X124250000Y-91600000D03*
X123700000Y-93250000D03*
X123700000Y-92150000D03*
%TD*%
D17*
%TO.P,R5,1*%
%TO.N,+3.3V*%
X130000000Y-81087500D03*
%TO.P,R5,2*%
%TO.N,Net-(IC2-ALERT)*%
X130000000Y-82912500D03*
%TD*%
D26*
%TO.P,R4,1*%
%TO.N,Net-(D1-K)*%
X108700000Y-72800000D03*
%TO.P,R4,2*%
%TO.N,Net-(D3-A)*%
X106875000Y-72800000D03*
%TD*%
D17*
%TO.P,R3,1*%
%TO.N,+3.3V*%
X124000000Y-81087500D03*
%TO.P,R3,2*%
%TO.N,SDA*%
X124000000Y-82912500D03*
%TD*%
%TO.P,R2,1*%
%TO.N,+3.3V*%
X127000000Y-81087500D03*
%TO.P,R2,2*%
%TO.N,SCL*%
X127000000Y-82912500D03*
%TD*%
D26*
%TO.P,R1,1*%
%TO.N,Net-(IC3-PROG)*%
X109100000Y-68600000D03*
%TO.P,R1,2*%
%TO.N,GND*%
X107275000Y-68600000D03*
%TD*%
D27*
%TO.P,J1,1,Pin_1*%
%TO.N,+BATT*%
X107100000Y-52500000D03*
D28*
%TO.P,J1,2,Pin_2*%
%TO.N,GND*%
X103500000Y-52500000D03*
%TD*%
D29*
%TO.P,D3,1,K*%
%TO.N,GND*%
X104200000Y-70000000D03*
%TO.P,D3,2,A*%
%TO.N,Net-(D3-A)*%
X104200000Y-71875000D03*
%TD*%
D30*
%TO.P,D2,2,A*%
%TO.N,Net-(D2-A)*%
X132000000Y-65962500D03*
%TO.P,D2,1,K*%
%TO.N,GND*%
X132000000Y-67837500D03*
%TD*%
%TO.P,D1,1,K*%
%TO.N,Net-(D1-K)*%
X112000000Y-71537500D03*
%TO.P,D1,2,A*%
%TO.N,Net-(D1-A)*%
X112000000Y-69662500D03*
%TD*%
D31*
%TO.P,C6,1*%
%TO.N,+BATT*%
X103000000Y-63000000D03*
%TO.P,C6,2*%
%TO.N,GND*%
X103000000Y-64900000D03*
%TD*%
D32*
%TO.P,C5,1*%
%TO.N,Net-(D1-A)*%
X110000000Y-62450000D03*
%TO.P,C5,2*%
%TO.N,GND*%
X110000000Y-60550000D03*
%TD*%
%TO.P,C4,1*%
%TO.N,+3.3V*%
X138865421Y-98585333D03*
%TO.P,C4,2*%
%TO.N,GND*%
X138865421Y-96685333D03*
%TD*%
%TO.P,C3,1*%
%TO.N,+3.3V*%
X136800000Y-98600000D03*
%TO.P,C3,2*%
%TO.N,GND*%
X136800000Y-96700000D03*
%TD*%
D31*
%TO.P,C2,1*%
%TO.N,+3.3V*%
X108500000Y-56050000D03*
%TO.P,C2,2*%
%TO.N,GND*%
X108500000Y-57950000D03*
%TD*%
%TO.P,C1,1*%
%TO.N,+BATT*%
X102000000Y-56000000D03*
%TO.P,C1,2*%
%TO.N,GND*%
X102000000Y-57900000D03*
%TD*%
D33*
%TO.N,USB_D+*%
X118500000Y-92000000D03*
X117800003Y-56500000D03*
%TO.N,USB_D-*%
X118500000Y-90500000D03*
X117000000Y-56500000D03*
%TO.N,GND*%
X141000000Y-96500000D03*
X129000000Y-68000000D03*
%TO.N,+3.3V*%
X124236500Y-77736500D03*
X128500000Y-80000000D03*
%TO.N,GND*%
X106500000Y-59500000D03*
X102000000Y-59400000D03*
%TD*%
D34*
%TO.N,+BATT*%
X104967500Y-60532500D02*
X104967500Y-56467500D01*
X104967500Y-56467500D02*
X104483750Y-55983750D01*
X107100000Y-53367500D02*
X104483750Y-55983750D01*
X104483750Y-55983750D02*
X104467500Y-56000000D01*
%TO.N,Net-(D1-A)*%
X115250000Y-58900000D02*
X115250000Y-58400000D01*
%TO.N,USB_D-*%
X118285000Y-58500000D02*
X118350000Y-58435000D01*
X118350000Y-58435000D02*
X118350000Y-57700000D01*
X116915000Y-58500000D02*
X118285000Y-58500000D01*
X116850000Y-58435000D02*
X116915000Y-58500000D01*
X116850000Y-57700000D02*
X116850000Y-58435000D01*
%TO.N,USB_D+*%
X117600000Y-92900000D02*
X117010000Y-92900000D01*
X118500000Y-92000000D02*
X117600000Y-92900000D01*
X117800003Y-57249997D02*
X117800003Y-56500000D01*
X117350000Y-57700000D02*
X117800003Y-57249997D01*
%TO.N,USB_D-*%
X117600000Y-91400000D02*
X117010000Y-91400000D01*
X118500000Y-90500000D02*
X117600000Y-91400000D01*
X116850000Y-56650000D02*
X117000000Y-56500000D01*
X116850000Y-57700000D02*
X116850000Y-56650000D01*
%TO.N,GND*%
X121545000Y-57700000D02*
X121920000Y-57325000D01*
X120700000Y-57700000D02*
X121545000Y-57700000D01*
%TO.N,USB_D+*%
X117350000Y-57700000D02*
X117850000Y-57700000D01*
%TO.N,GND*%
X140814667Y-96685333D02*
X141000000Y-96500000D01*
X138865421Y-96685333D02*
X140814667Y-96685333D01*
X129162500Y-67837500D02*
X129000000Y-68000000D01*
X132000000Y-67837500D02*
X129162500Y-67837500D01*
%TO.N,+3.3V*%
X122000000Y-83087500D02*
X124000000Y-81087500D01*
X122000000Y-94500000D02*
X122000000Y-83087500D01*
X126400000Y-98900000D02*
X122000000Y-94500000D01*
X134510000Y-98900000D02*
X126400000Y-98900000D01*
%TO.N,GND*%
X134510000Y-86900000D02*
X134510000Y-81999500D01*
X134510000Y-81999500D02*
X126174000Y-73663500D01*
%TO.N,Net-(D2-A)*%
X134810000Y-97400000D02*
X134510000Y-97400000D01*
X135560000Y-96650000D02*
X134810000Y-97400000D01*
X135560000Y-69522500D02*
X135560000Y-96650000D01*
X132000000Y-65962500D02*
X135560000Y-69522500D01*
%TO.N,GND*%
X126174000Y-73663500D02*
X132000000Y-67837500D01*
X126174000Y-77736500D02*
X126174000Y-73663500D01*
X136814667Y-96685333D02*
X136800000Y-96700000D01*
X138865421Y-96685333D02*
X136814667Y-96685333D01*
%TO.N,+3.3V*%
X138850754Y-98600000D02*
X138865421Y-98585333D01*
X136800000Y-98600000D02*
X138850754Y-98600000D01*
X136500000Y-98900000D02*
X136800000Y-98600000D01*
X134510000Y-98900000D02*
X136500000Y-98900000D01*
X128500000Y-81087500D02*
X128500000Y-80000000D01*
X128500000Y-81087500D02*
X127000000Y-81087500D01*
X130000000Y-81087500D02*
X128500000Y-81087500D01*
X124000000Y-77973000D02*
X124236500Y-77736500D01*
X124000000Y-81087500D02*
X124000000Y-77973000D01*
%TO.N,SCL*%
X132487500Y-88400000D02*
X134510000Y-88400000D01*
X127000000Y-82912500D02*
X132487500Y-88400000D01*
%TO.N,SDA*%
X130987500Y-89900000D02*
X134510000Y-89900000D01*
X124000000Y-82912500D02*
X130987500Y-89900000D01*
%TO.N,SCL*%
X126000000Y-80000000D02*
X126000000Y-81912500D01*
X126000000Y-81912500D02*
X127000000Y-82912500D01*
X127224000Y-78776000D02*
X126000000Y-80000000D01*
X127224000Y-78386500D02*
X127224000Y-78776000D01*
%TO.N,Net-(IC2-ALERT)*%
X131000000Y-80362500D02*
X131000000Y-81912500D01*
X127724000Y-77086500D02*
X131000000Y-80362500D01*
X131000000Y-81912500D02*
X130000000Y-82912500D01*
X127224000Y-77086500D02*
X127724000Y-77086500D01*
%TO.N,SDA*%
X125124000Y-81788500D02*
X124000000Y-82912500D01*
X125124000Y-78386500D02*
X125124000Y-81788500D01*
%TO.N,+3.3V*%
X124236500Y-77736500D02*
X125124000Y-77736500D01*
X122500000Y-62500000D02*
X122500000Y-76000000D01*
X126275000Y-58725000D02*
X122500000Y-62500000D01*
X122500000Y-76000000D02*
X124236500Y-77736500D01*
X128225000Y-58725000D02*
X126275000Y-58725000D01*
X129460000Y-58725000D02*
X128225000Y-58725000D01*
%TO.N,GND*%
X126174000Y-77736500D02*
X127224000Y-77736500D01*
X125124000Y-77086500D02*
X125524000Y-77086500D01*
X125524000Y-77086500D02*
X126174000Y-77736500D01*
%TO.N,+3.3V*%
X125000000Y-55500000D02*
X128225000Y-58725000D01*
X109000000Y-55500000D02*
X125000000Y-55500000D01*
X108500000Y-56000000D02*
X109000000Y-55500000D01*
X108500000Y-56050000D02*
X108500000Y-56000000D01*
%TO.N,GND*%
X101975000Y-59425000D02*
X102000000Y-59400000D01*
X101975000Y-63875000D02*
X101975000Y-59425000D01*
X103000000Y-64900000D02*
X101975000Y-63875000D01*
%TO.N,Net-(D1-A)*%
X110275000Y-62725000D02*
X110925000Y-62725000D01*
X110925000Y-62725000D02*
X115250000Y-58400000D01*
X115250000Y-58400000D02*
X115250000Y-57700000D01*
X110000000Y-62450000D02*
X110275000Y-62725000D01*
%TO.N,Net-(D2-A)*%
X132000000Y-64200000D02*
X132000000Y-65962500D01*
%TO.N,Net-(S1-COM)*%
X132000000Y-58725000D02*
X132000000Y-62375000D01*
%TO.N,Net-(D1-K)*%
X110737500Y-72800000D02*
X112000000Y-71537500D01*
X108700000Y-72800000D02*
X110737500Y-72800000D01*
%TO.N,Net-(D3-A)*%
X105950000Y-71875000D02*
X106875000Y-72800000D01*
X104200000Y-71875000D02*
X105950000Y-71875000D01*
%TO.N,Net-(D1-A)*%
X112000000Y-64450000D02*
X112000000Y-69662500D01*
X110000000Y-62450000D02*
X112000000Y-64450000D01*
%TO.N,GND*%
X106750000Y-65250000D02*
X107000000Y-65000000D01*
X106750000Y-66500000D02*
X106750000Y-65250000D01*
X106750000Y-68075000D02*
X106750000Y-66500000D01*
X107275000Y-68600000D02*
X106750000Y-68075000D01*
%TO.N,Net-(IC3-PROG)*%
X109100000Y-68600000D02*
X109100000Y-67850000D01*
X109100000Y-67850000D02*
X107750000Y-66500000D01*
%TO.N,GND*%
X104200000Y-70000000D02*
X105875000Y-70000000D01*
X105875000Y-70000000D02*
X107275000Y-68600000D01*
%TO.N,Net-(D3-A)*%
X102000000Y-69675000D02*
X104200000Y-71875000D01*
X102000000Y-68500000D02*
X102000000Y-69675000D01*
X104000000Y-66500000D02*
X102000000Y-68500000D01*
X106250000Y-66500000D02*
X104000000Y-66500000D01*
%TO.N,+BATT*%
X106750000Y-62315000D02*
X104967500Y-60532500D01*
X106750000Y-63500000D02*
X106750000Y-62315000D01*
%TO.N,Net-(D1-A)*%
X108950000Y-63500000D02*
X110000000Y-62450000D01*
X107750000Y-63500000D02*
X108950000Y-63500000D01*
%TO.N,GND*%
X106900000Y-64900000D02*
X107000000Y-65000000D01*
X103000000Y-64900000D02*
X106900000Y-64900000D01*
X114500000Y-58400000D02*
X114500000Y-57700000D01*
X112350000Y-60550000D02*
X114500000Y-58400000D01*
X110000000Y-60550000D02*
X112350000Y-60550000D01*
X108500000Y-59050000D02*
X110000000Y-60550000D01*
X108500000Y-57950000D02*
X108500000Y-59050000D01*
X106500000Y-58000000D02*
X106500000Y-59500000D01*
X106450000Y-57950000D02*
X106500000Y-58000000D01*
X106450000Y-57950000D02*
X105382500Y-56882500D01*
X108500000Y-57950000D02*
X106450000Y-57950000D01*
%TO.N,+BATT*%
X107100000Y-52500000D02*
X107100000Y-53367500D01*
X103000000Y-62500000D02*
X104967500Y-60532500D01*
X103000000Y-63000000D02*
X103000000Y-62500000D01*
%TO.N,+3.3V*%
X105800000Y-56050000D02*
X105382500Y-56467500D01*
X108500000Y-56050000D02*
X105800000Y-56050000D01*
%TO.N,+BATT*%
X104467500Y-56000000D02*
X104967500Y-56500000D01*
X102000000Y-56000000D02*
X104467500Y-56000000D01*
%TO.N,GND*%
X102000000Y-57900000D02*
X102000000Y-59400000D01*
%TO.N,Net-(D1-A)*%
X119950000Y-58900000D02*
X119950000Y-58200000D01*
X119850000Y-59000000D02*
X119950000Y-58900000D01*
X115350000Y-59000000D02*
X119850000Y-59000000D01*
X115250000Y-58900000D02*
X115350000Y-59000000D01*
%TD*%
M02*
